HIERARCHY
ROOT Root
{
  OFFSET 0.0 0.0 0.0
  CHANNELS 6 Xposition Yposition Zposition Zrotation Yrotation Xrotation
  JOINT Hips
  {
    OFFSET 0.0 100.0 0.0
    CHANNELS 6 Xposition Yposition Zposition Zrotation Yrotation Xrotation
    JOINT Spine1
    {
      OFFSET 5.003913 -0.037094 -0.013727
      CHANNELS 3 Zrotation Yrotation Xrotation
      JOINT Spine2
      {
        OFFSET 7.125363 -1e-06 0.0
        CHANNELS 3 Zrotation Yrotation Xrotation
        JOINT Chest
        {
          OFFSET 7.594027 1e-06 0.0
          CHANNELS 3 Zrotation Yrotation Xrotation
          JOINT Neck1
          {
            OFFSET 26.313086 -0.460272 -0.181672
            CHANNELS 3 Zrotation Yrotation Xrotation
            JOINT Neck2
            {
              OFFSET 8.045911 0.0 0.0
              CHANNELS 3 Zrotation Yrotation Xrotation
              JOINT Head
              {
                OFFSET 6.432774 0.0 0.0
                CHANNELS 3 Zrotation Yrotation Xrotation
                JOINT HeadEnd
                {
                  OFFSET 16.169773 0.06451 0.00362
                  CHANNELS 3 Zrotation Yrotation Xrotation
                }
                JOINT Jaw
                {
                  OFFSET 0.108741 3.12938 0.002639
                  CHANNELS 3 Zrotation Yrotation Xrotation
                }
                JOINT LeftEye
                {
                  OFFSET 4.45173 8.166359 3.206392
                  CHANNELS 3 Zrotation Yrotation Xrotation
                }
                JOINT RightEye
                {
                  OFFSET 4.436895 8.135758 -3.222429
                  CHANNELS 3 Zrotation Yrotation Xrotation
                }
              }
            }
          }
          JOINT LeftShoulder
          {
            OFFSET 23.218927 5.195579 1.621656
            CHANNELS 3 Zrotation Yrotation Xrotation
            JOINT LeftArm
            {
              OFFSET 15.902118 2e-06 -2e-06
              CHANNELS 3 Zrotation Yrotation Xrotation
              JOINT LeftForeArm
              {
                OFFSET 28.739307 0.0 -1e-06
                CHANNELS 3 Zrotation Yrotation Xrotation
                JOINT LeftHand
                {
                  OFFSET 27.093981 -4e-06 0.0
                  CHANNELS 3 Zrotation Yrotation Xrotation
                  JOINT LeftHandThumb1
                  {
                    OFFSET 2.276781 3.380274 0.83384
                    CHANNELS 3 Zrotation Yrotation Xrotation
                    JOINT LeftHandThumb2
                    {
                      OFFSET 4.705309 -1e-06 -1e-06
                      CHANNELS 3 Zrotation Yrotation Xrotation
                      JOINT LeftHandThumb3
                      {
                        OFFSET 2.798515 0.0 3e-06
                        CHANNELS 3 Zrotation Yrotation Xrotation
                        JOINT LeftHandThumbEnd
                        {
                          OFFSET 3.180793 4e-06 -4e-06
                          CHANNELS 3 Zrotation Yrotation Xrotation
                        }
                      }
                    }
                  }
                  JOINT LeftHandIndex1
                  {
                    OFFSET 3.247786 2.352677 0.137192
                    CHANNELS 3 Zrotation Yrotation Xrotation
                    JOINT LeftHandIndex2
                    {
                      OFFSET 6.367095 1e-06 0.0
                      CHANNELS 3 Zrotation Yrotation Xrotation
                      JOINT LeftHandIndex3
                      {
                        OFFSET 3.662364 0.0 0.0
                        CHANNELS 3 Zrotation Yrotation Xrotation
                        JOINT LeftHandIndex4
                        {
                          OFFSET 2.329242 4e-06 -4e-06
                          CHANNELS 3 Zrotation Yrotation Xrotation
                          JOINT LeftHandIndexEnd
                          {
                            OFFSET 2.767823 1e-06 0.0
                            CHANNELS 3 Zrotation Yrotation Xrotation
                          }
                        }
                      }
                    }
                  }
                  JOINT LeftHandMiddle1
                  {
                    OFFSET 3.163612 0.945023 -0.406112
                    CHANNELS 3 Zrotation Yrotation Xrotation
                    JOINT LeftHandMiddle2
                    {
                      OFFSET 6.276789 3e-06 0.0
                      CHANNELS 3 Zrotation Yrotation Xrotation
                      JOINT LeftHandMiddle3
                      {
                        OFFSET 4.35652 -1e-06 4e-06
                        CHANNELS 3 Zrotation Yrotation Xrotation
                        JOINT LeftHandMiddle4
                        {
                          OFFSET 2.996877 0.0 8e-06
                          CHANNELS 3 Zrotation Yrotation Xrotation
                          JOINT LeftHandMiddleEnd
                          {
                            OFFSET 2.323256 3e-06 -4e-06
                            CHANNELS 3 Zrotation Yrotation Xrotation
                          }
                        }
                      }
                    }
                  }
                  JOINT LeftHandRing1
                  {
                    OFFSET 2.882606 -0.309162 0.107445
                    CHANNELS 3 Zrotation Yrotation Xrotation
                    JOINT LeftHandRing2
                    {
                      OFFSET 6.033198 0.0 4e-06
                      CHANNELS 3 Zrotation Yrotation Xrotation
                      JOINT LeftHandRing3
                      {
                        OFFSET 4.350578 3e-06 0.0
                        CHANNELS 3 Zrotation Yrotation Xrotation
                        JOINT LeftHandRing4
                        {
                          OFFSET 2.651321 2e-06 -7e-06
                          CHANNELS 3 Zrotation Yrotation Xrotation
                          JOINT LeftHandRingEnd
                          {
                            OFFSET 1.937663 1e-06 -4e-06
                            CHANNELS 3 Zrotation Yrotation Xrotation
                          }
                        }
                      }
                    }
                  }
                  JOINT LeftHandPinky1
                  {
                    OFFSET 2.865315 -1.525436 0.575687
                    CHANNELS 3 Zrotation Yrotation Xrotation
                    JOINT LeftHandPinky2
                    {
                      OFFSET 5.54936 1e-06 -8e-06
                      CHANNELS 3 Zrotation Yrotation Xrotation
                      JOINT LeftHandPinky3
                      {
                        OFFSET 3.070974 0.0 -4e-06
                        CHANNELS 3 Zrotation Yrotation Xrotation
                        JOINT LeftHandPinky4
                        {
                          OFFSET 1.549672 1e-06 0.0
                          CHANNELS 3 Zrotation Yrotation Xrotation
                          JOINT LeftHandPinkyEnd
                          {
                            OFFSET 1.952123 0.0 0.0
                            CHANNELS 3 Zrotation Yrotation Xrotation
                          }
                        }
                      }
                    }
                  }
                }
              }
            }
          }
          JOINT RightShoulder
          {
            OFFSET 23.161716 5.296122 -1.380114
            CHANNELS 3 Zrotation Yrotation Xrotation
            JOINT RightArm
            {
              OFFSET -16.027195 -2e-06 1.1e-05
              CHANNELS 3 Zrotation Yrotation Xrotation
              JOINT RightForeArm
              {
                OFFSET -28.736639 4e-06 2e-06
                CHANNELS 3 Zrotation Yrotation Xrotation
                JOINT RightHand
                {
                  OFFSET -27.133619 6e-06 0.0
                  CHANNELS 3 Zrotation Yrotation Xrotation
                  JOINT RightHandThumb1
                  {
                    OFFSET -2.274328 -3.351035 -0.83067
                    CHANNELS 3 Zrotation Yrotation Xrotation
                    JOINT RightHandThumb2
                    {
                      OFFSET -4.703594 -3e-06 2e-06
                      CHANNELS 3 Zrotation Yrotation Xrotation
                      JOINT RightHandThumb3
                      {
                        OFFSET -2.794935 -4e-06 -3e-06
                        CHANNELS 3 Zrotation Yrotation Xrotation
                        JOINT RightHandThumbEnd
                        {
                          OFFSET -3.183852 4e-06 1e-06
                          CHANNELS 3 Zrotation Yrotation Xrotation
                        }
                      }
                    }
                  }
                  JOINT RightHandIndex1
                  {
                    OFFSET -3.253496 -2.33755 -0.127667
                    CHANNELS 3 Zrotation Yrotation Xrotation
                    JOINT RightHandIndex2
                    {
                      OFFSET -6.344434 0.0 0.0
                      CHANNELS 3 Zrotation Yrotation Xrotation
                      JOINT RightHandIndex3
                      {
                        OFFSET -3.654871 0.0 -8e-06
                        CHANNELS 3 Zrotation Yrotation Xrotation
                        JOINT RightHandIndex4
                        {
                          OFFSET -2.327586 -1e-06 0.0
                          CHANNELS 3 Zrotation Yrotation Xrotation
                          JOINT RightHandIndexEnd
                          {
                            OFFSET -2.770001 3e-06 8e-06
                            CHANNELS 3 Zrotation Yrotation Xrotation
                          }
                        }
                      }
                    }
                  }
                  JOINT RightHandMiddle1
                  {
                    OFFSET -3.168223 -0.944764 0.411762
                    CHANNELS 3 Zrotation Yrotation Xrotation
                    JOINT RightHandMiddle2
                    {
                      OFFSET -6.266691 -1e-06 -4e-06
                      CHANNELS 3 Zrotation Yrotation Xrotation
                      JOINT RightHandMiddle3
                      {
                        OFFSET -4.348901 0.0 0.0
                        CHANNELS 3 Zrotation Yrotation Xrotation
                        JOINT RightHandMiddle4
                        {
                          OFFSET -3.00024 2e-06 -4e-06
                          CHANNELS 3 Zrotation Yrotation Xrotation
                          JOINT RightHandMiddleEnd
                          {
                            OFFSET -2.321477 -4e-06 -4e-06
                            CHANNELS 3 Zrotation Yrotation Xrotation
                          }
                        }
                      }
                    }
                  }
                  JOINT RightHandRing1
                  {
                    OFFSET -2.885654 0.293261 -0.119232
                    CHANNELS 3 Zrotation Yrotation Xrotation
                    JOINT RightHandRing2
                    {
                      OFFSET -6.032835 -1e-06 -4e-06
                      CHANNELS 3 Zrotation Yrotation Xrotation
                      JOINT RightHandRing3
                      {
                        OFFSET -4.33881 0.0 -4e-06
                        CHANNELS 3 Zrotation Yrotation Xrotation
                        JOINT RightHandRing4
                        {
                          OFFSET -2.654903 -4e-06 -4e-06
                          CHANNELS 3 Zrotation Yrotation Xrotation
                          JOINT RightHandRingEnd
                          {
                            OFFSET -1.935122 0.0 4e-06
                            CHANNELS 3 Zrotation Yrotation Xrotation
                          }
                        }
                      }
                    }
                  }
                  JOINT RightHandPinky1
                  {
                    OFFSET -2.866241 1.503904 -0.60527
                    CHANNELS 3 Zrotation Yrotation Xrotation
                    JOINT RightHandPinky2
                    {
                      OFFSET -5.553177 -2e-06 0.0
                      CHANNELS 3 Zrotation Yrotation Xrotation
                      JOINT RightHandPinky3
                      {
                        OFFSET -3.062664 -1e-06 -4e-06
                        CHANNELS 3 Zrotation Yrotation Xrotation
                        JOINT RightHandPinky4
                        {
                          OFFSET -1.546529 2e-06 4e-06
                          CHANNELS 3 Zrotation Yrotation Xrotation
                          JOINT RightHandPinkyEnd
                          {
                            OFFSET -1.952341 0.0 -4e-06
                            CHANNELS 3 Zrotation Yrotation Xrotation
                          }
                        }
                      }
                    }
                  }
                }
              }
            }
          }
        }
      }
    }
    JOINT LeftLeg
    {
      OFFSET -8.443107 2.567604 10.043214
      CHANNELS 3 Zrotation Yrotation Xrotation
      JOINT LeftShin
      {
        OFFSET 43.229198 1e-06 -1e-06
        CHANNELS 3 Zrotation Yrotation Xrotation
        JOINT LeftFoot
        {
          OFFSET 42.298611 1e-06 1e-06
          CHANNELS 3 Zrotation Yrotation Xrotation
          JOINT LeftToeBase
          {
            OFFSET 14.165858 1e-06 0.0
            CHANNELS 3 Zrotation Yrotation Xrotation
            JOINT LeftToeEnd
            {
              OFFSET 6.7141 -0.234461 0.0
              CHANNELS 3 Zrotation Yrotation Xrotation
            }
          }
        }
      }
    }
    JOINT RightLeg
    {
      OFFSET -8.303923 2.592729 -10.047278
      CHANNELS 3 Zrotation Yrotation Xrotation
      JOINT RightShin
      {
        OFFSET -43.369682 0.0 1e-06
        CHANNELS 3 Zrotation Yrotation Xrotation
        JOINT RightFoot
        {
          OFFSET -42.260784 4e-06 2e-06
          CHANNELS 3 Zrotation Yrotation Xrotation
          JOINT RightToeBase
          {
            OFFSET -14.222245 -2e-06 -1e-06
            CHANNELS 3 Zrotation Yrotation Xrotation
            JOINT RightToeEnd
            {
              OFFSET -6.660062 0.232574 -2e-06
              CHANNELS 3 Zrotation Yrotation Xrotation
            }
          }
        }
      }
    }
  }
}
MOTION
Frames: 4
Frame Time: 0.03333333333333333
0.0 0.0 0.0 0.0 -0.0 0.0 -19.123976 47.993584 130.259384 85.174622 -51.027977 96.345222 11.39559 1.429837 -0.663688 -4.670313 -0.070901 -1.814059 26.997242 4.281361 -2.099774 23.828974 -4.529511 2.321154 -2.661669 -0.772811 0.149669 -31.459564 -0.081534 -0.094674 6e-06 -0.0 -0.0 -0.169403 -0.10132 0.050336 -0.176698 -0.152106 0.095345 -0.171933 -0.058179 0.017081 -23.74556 -73.2276 30.212259 88.174683 1.678441 -29.306217 9.605692 0.107806 0.018437 23.759321 68.004578 25.061655 17.63662 -26.322718 52.411175 -19.466652 -14.395597 29.410378 -3e-06 -8.774819 -1e-06 16.669502 -18.134899 5.541806 -0.609776 -1.795654 -3.889327 -4.807088 -11.046809 -2.937849 4e-06 -20.976013 -1e-06 -5.019969 -25.033552 -4.031879 6e-06 1e-06 1e-06 -10.634531 -5.686968 -3.565586 10.573271 -17.922947 -3.113899 3e-06 -13.821205 -0.0 -0.501777 -31.181494 -4.027014 -11.493667 -59.144543 7.251019 -13.982709 -7.150197 -2.87504 13.772725 -8.401491 -3.21824 0.347733 -34.211536 0.771654 -0.963029 -17.733362 2.621018 -0.0 0.0 0.0 -17.346413 -20.095211 -4.201779 21.757551 -1.638374 3.866426 1e-06 -6.338822 0.0 -1.697589 -22.591743 -6.194005 0.0 -6e-06 -2e-06 -162.933899 -82.644623 -6.789227 88.615463 -15.982918 -26.500849 22.668489 0.317532 0.126887 12.458566 80.515045 22.124723 22.18211 -20.375891 49.933319 -16.701817 -16.74353 28.476538 -5e-06 -12.690602 0.0 16.684513 -17.736958 2.104104 -0.105919 -1.513856 -4.275882 -5.039041 -5.612873 -2.953557 5e-06 -11.020525 -3e-06 -6.111296 -15.89533 -3.840472 -1e-06 1e-06 1e-06 -10.283371 -5.680286 -4.341839 11.028296 -11.302406 -2.372634 -1.384266 -14.238583 -6.320123 -0.625435 -26.924187 -3.827606 -3.923221 -48.844414 -4.585786 -13.708524 -7.363477 -3.72094 18.141153 -14.052739 -3.242676 8e-06 -18.787268 -3e-06 -0.429711 -8.456042 2.555505 -0.0 -0.0 0.0 -15.923534 -20.094482 -5.473587 30.419214 -7.190827 1.735924 2e-06 -8.162926 1e-06 -1.861901 -22.861467 -6.167943 1e-06 -3e-06 -2e-06 151.01741 -6.84011 5.646348 87.430527 -2.039107 0.055149 -91.127586 6.324465 24.571159 -54.647583 1.914735 1.312934 -0.999995 0.0 -1e-06 -57.697102 -2.70661 6.870141 122.740891 0.19508 0.176231 -103.022163 6.707952 13.32516 -49.827003 1.211144 1.482752 -1.000005 2e-06 1e-06 
0.0 0.0 0.0 0.0 -0.0 0.0 -19.366941 47.98999 131.049332 84.94854 -51.615288 96.459892 11.306673 1.365007 -0.693458 -4.701932 -0.137623 -1.770043 26.647018 4.259554 -2.055602 23.395073 -4.349169 2.34875 -2.67764 -0.666012 0.004725 -31.741432 -0.012084 -0.228414 5e-06 -0.0 -0.0 -0.182024 -0.122772 0.057577 -0.128674 -0.181224 0.115558 -0.127973 -0.073618 0.013892 -23.916269 -72.796486 30.201399 88.467712 0.948625 -28.790741 9.66751 0.060459 -0.007887 25.058025 69.415184 26.279142 17.636631 -26.322729 52.411186 -19.466663 -14.395596 29.410385 -1e-06 -8.774821 -2e-06 16.558626 -18.043093 5.592623 -0.609776 -1.795654 -3.889328 -4.807089 -11.046811 -2.93785 3e-06 -20.976017 -1e-06 -5.019971 -25.03356 -4.031879 6e-06 -1e-06 2e-06 -10.634534 -5.686971 -3.565587 10.573272 -17.922955 -3.1139 3e-06 -13.82121 0.0 -0.501778 -31.181501 -4.027016 -11.458127 -59.071945 7.234465 -13.982713 -7.150199 -2.875041 13.772729 -8.401491 -3.218241 0.347732 -34.211555 0.771655 -0.963029 -17.733372 2.62102 0.0 1e-06 -0.0 -17.346416 -20.095221 -4.20178 21.757557 -1.638376 3.866428 1e-06 -6.338822 1e-06 -1.697589 -22.591745 -6.194006 0.0 -7e-06 -2e-06 -162.892502 -82.78466 -6.660904 88.133324 -16.814079 -26.931709 25.385197 0.598406 0.125686 16.071819 80.384384 27.172968 22.182121 -20.375898 49.933319 -16.701813 -16.743525 28.47653 -4e-06 -12.690601 -2e-06 16.769274 -17.791685 2.047171 -0.105919 -1.513855 -4.27588 -5.039041 -5.612873 -2.953557 4e-06 -11.020526 -0.0 -6.111296 -15.895332 -3.840471 1e-06 1e-06 1e-06 -10.283372 -5.680289 -4.341838 11.028296 -11.302407 -2.37263 -1.384268 -14.238585 -6.320119 -0.62544 -26.924194 -3.8276 -3.896695 -48.908627 -4.561665 -13.708526 -7.363476 -3.720939 18.141151 -14.05274 -3.242672 6e-06 -18.787271 -0.0 -0.429712 -8.456045 2.555505 1e-06 1e-06 2e-06 -15.923536 -20.094482 -5.473585 30.41921 -7.190827 1.735927 2e-06 -8.162928 1e-06 -1.861902 -22.861473 -6.16794 0.0 -3e-06 -3e-06 151.269485 -7.196572 5.609366 86.040627 -2.042194 0.127405 -90.186943 6.421169 24.715843 -54.222172 1.912705 1.344035 -0.999994 -0.0 -1e-06 -57.453606 -2.226068 6.57596 121.749573 0.304117 0.217301 -101.884377 6.535397 13.856455 -49.972847 1.18569 1.447077 -1.000006 0.0 0.0 
0.0 0.0 0.0 0.0 -0.0 0.0 -19.678696 48.07869 131.834976 84.988632 -52.174057 96.925507 11.176288 1.326777 -0.849 -4.813924 -0.364089 -1.903629 26.450054 4.171273 -2.219952 22.864859 -3.939243 2.406825 -2.729769 -0.34631 -0.109849 -31.8013 -0.031707 -0.40826 5e-06 0.0 0.0 -0.202954 -0.043817 0.031289 -0.149568 -0.099056 0.085252 -0.159903 0.001791 -0.001891 -22.823372 -72.484642 29.000824 88.512009 0.506354 -28.285875 9.347102 -0.072523 -0.020041 26.166164 70.364128 27.196289 17.636627 -26.322733 52.411201 -19.466665 -14.395602 29.410395 -1e-06 -8.774822 -1e-06 16.478649 -17.979826 5.663038 -0.609776 -1.795653 -3.889329 -4.807089 -11.046813 -2.937852 5e-06 -20.976019 -2e-06 -5.019969 -25.033558 -4.031882 6e-06 0.0 0.0 -10.634535 -5.686971 -3.565588 10.573277 -17.922955 -3.113902 4e-06 -13.821211 -1e-06 -0.501775 -31.181505 -4.027017 -11.16694 -59.000706 7.066011 -13.982715 -7.1502 -2.875043 13.772731 -8.401493 -3.218243 0.347736 -34.211555 0.771654 -0.963029 -17.73337 2.62102 0.0 -1e-06 0.0 -17.346418 -20.095221 -4.201783 21.757561 -1.638374 3.866427 2e-06 -6.338823 0.0 -1.697588 -22.591749 -6.194008 -0.0 -5e-06 -2e-06 -165.493668 -83.276344 -3.810604 87.637367 -17.370825 -28.258701 29.256334 0.703225 0.065543 25.250906 79.70153 38.51725 22.182117 -20.375898 49.933323 -16.70182 -16.743532 28.476538 -4e-06 -12.690603 -0.0 16.86109 -17.875748 2.031315 -0.10592 -1.513857 -4.275882 -5.03904 -5.612873 -2.953556 4e-06 -11.020527 -2e-06 -6.111297 -15.895336 -3.840472 0.0 1e-06 0.0 -10.283373 -5.680288 -4.341839 11.028297 -11.302407 -2.372632 -1.384267 -14.238587 -6.320122 -0.625436 -26.9242 -3.827603 -3.904565 -49.191368 -4.530445 -13.708526 -7.363476 -3.720939 18.141151 -14.05274 -3.242676 7e-06 -18.787271 -1e-06 -0.429711 -8.456045 2.555502 0.0 0.0 0.0 -15.923536 -20.09449 -5.473584 30.419218 -7.190826 1.735925 2e-06 -8.162929 0.0 -1.8619 -22.861473 -6.167942 0.0 -2e-06 -3e-06 150.925278 -7.106744 5.857765 84.993584 -2.218576 0.102683 -88.851982 6.715443 24.981354 -52.765209 1.891052 1.371876 -0.999998 0.0 -2e-06 -57.118267 -2.305055 6.104921 120.707817 0.416941 0.261783 -100.730736 6.506314 14.250851 -49.499821 1.161432 1.434887 -1.000005 1e-06 1e-06 
0.0 0.0 0.0 0.0 -0.0 0.0 -20.081303 48.184853 132.420731 85.421402 -52.591019 97.484566 11.101001 1.135474 -1.004808 -4.884693 -0.55321 -2.163358 26.274284 3.878003 -2.657535 22.471399 -2.88525 2.573455 -2.729213 -0.497769 -0.375486 -31.78405 -0.094081 -0.66511 5e-06 -0.0 -0.0 -0.209672 -0.05869 0.031491 -0.079507 -0.123708 0.097913 -0.113459 0.000293 -0.013465 -20.554634 -72.319656 26.64204 88.157661 0.2239 -27.472309 8.96099 -0.322512 -0.043938 26.53075 71.062202 27.173832 17.636623 -26.322737 52.411213 -19.466665 -14.3956 29.410398 -1e-06 -8.774822 -1e-06 16.354094 -17.97081 5.725249 -0.609776 -1.795653 -3.889328 -4.807088 -11.046813 -2.937851 5e-06 -20.976021 -1e-06 -5.019969 -25.033562 -4.031882 6e-06 1e-06 0.0 -10.634534 -5.686971 -3.565588 10.573275 -17.922956 -3.113902 3e-06 -13.821213 -0.0 -0.501776 -31.181507 -4.027018 -11.327942 -59.000584 7.297637 -13.982714 -7.150199 -2.875044 13.77273 -8.401493 -3.218242 0.347735 -34.211555 0.771652 -0.963028 -17.73337 2.621019 -0.0 0.0 -0.0 -17.34642 -20.095221 -4.201784 21.757561 -1.638375 3.866428 1e-06 -6.338826 0.0 -1.697589 -22.591749 -6.194008 0.0 -5e-06 -2e-06 -173.114853 -83.850433 3.979153 87.2845 -17.784456 -30.23539 34.983223 0.914073 -0.072224 37.866444 78.435234 53.579288 22.182114 -20.375904 49.933342 -16.701818 -16.743532 28.476543 -3e-06 -12.690604 1e-06 17.228027 -18.023098 1.865671 -0.105918 -1.513857 -4.275883 -5.039042 -5.612876 -2.953558 2e-06 -11.020527 -2e-06 -6.111298 -15.895341 -3.840471 1e-06 1e-06 2e-06 -10.283374 -5.680289 -4.341841 11.028299 -11.302411 -2.372633 -1.384269 -14.238588 -6.320124 -0.625437 -26.924204 -3.827607 -3.977933 -49.417316 -4.669755 -13.708529 -7.363477 -3.720942 18.141153 -14.052748 -3.242677 5e-06 -18.787275 -3e-06 -0.429713 -8.456046 2.555504 -0.0 -0.0 2e-06 -15.923541 -20.094496 -5.473588 30.419218 -7.190828 1.735926 1e-06 -8.162927 -0.0 -1.861904 -22.861483 -6.167945 -0.0 -3e-06 -2e-06 150.180664 -6.711779 6.268569 84.856674 -2.357716 0.104747 -86.793686 7.559304 24.50589 -50.157112 1.911851 1.422228 -1.000001 -0.0 -0.0 -56.840752 -2.744658 5.603969 119.886528 0.48476 0.231665 -99.147934 6.675521 14.995193 -49.304142 1.17129 1.450192 -1.000004 0.0 0.0 
